<?xml version="1.0" encoding="UTF-8" standalone="no"?>
<svg width="275px" height="33px" viewBox="0 0 275 33" version="1.1" xmlns="http://www.w3.org/2000/svg" xmlns:xlink="http://www.w3.org/1999/xlink">
    <!-- Generator: Sketch 39.1 (31720) - http://www.bohemiancoding.com/sketch -->
    <title>LABADIGITAL Copy</title>
    <desc>Created with Sketch.</desc>
    <defs></defs>
    <g id="Welcome" stroke="none" stroke-width="1" fill="none" fill-rule="evenodd">
        <g id="Desktop-HD-Copy-3" transform="translate(-46.000000, -53.000000)" fill="#FFFFFF">
            <path d="M46,84.7673194 C46,85.0840875 46.2715156,85.3556031 46.5882837,85.3556031 L62.5624486,85.3556031 C62.8792167,85.3556031 63.1507323,85.1745927 63.1507323,84.8578246 L63.1507323,84.0432779 C63.1507323,83.7265098 63.1054797,83.4549942 62.5624486,83.4549942 L48.1268718,83.4549942 L48.1268718,54.2670726 C48.1268718,53.9503044 47.8553563,53.6787889 47.5838407,53.6787889 L46.5882837,53.6787889 C46.2715156,53.6787889 46,53.9503044 46,54.2670726 L46,84.7673194 Z M65.3681093,85.3556031 L66.6351818,85.3556031 C66.95195,85.3556031 67.1782129,85.1293401 67.2687181,84.9483298 L70.8889255,76.6218529 L88.1754155,76.6218529 L91.8408754,84.9483298 C91.9313806,85.1293401 92.1576436,85.3556031 92.4744117,85.3556031 L93.6509791,85.3556031 C94.1487576,85.3556031 94.1487576,85.0840875 94.0582524,84.812572 L80.2562119,53.3167681 C80.1204542,53.0452526 79.8941912,53 79.6679283,53 L79.5321705,53 C79.3059075,53 79.0796446,53.1357578 78.9891394,53.3167681 L65.0513411,84.812572 C64.9155833,85.1745927 65.0513411,85.3556031 65.3681093,85.3556031 L65.3681093,85.3556031 Z M71.7034721,74.8570018 L79.5774231,56.6202073 L79.6679283,56.6202073 L87.4061214,74.8570018 L71.7034721,74.8570018 Z M99.1265427,84.7673194 C99.1265427,85.0840875 99.3980583,85.3556031 99.7148264,85.3556031 L109.760902,85.3556031 C115.643739,85.3556031 119.716472,81.8259009 119.716472,76.7576107 C119.716472,72.4133619 116.956064,70.0602271 113.74313,69.2004278 C116.548791,68.069113 118.720915,65.4444627 118.720915,61.869508 C118.720915,56.8917229 114.919697,53.6787889 109.353628,53.6787889 L99.7148264,53.6787889 C99.3980583,53.6787889 99.1265427,53.9503044 99.1265427,54.2670726 L99.1265427,84.7673194 Z M101.253415,68.3406286 L101.253415,55.6699029 L109.353628,55.6699029 C113.697877,55.6699029 116.413033,58.0230377 116.413033,61.9600132 C116.413033,65.6707257 113.92414,68.3406286 109.670397,68.3406286 L101.253415,68.3406286 Z M101.208162,83.4549942 L101.208162,70.28649 L109.670397,70.28649 C113.969393,70.28649 117.40859,72.6848774 117.40859,76.7123581 C117.40859,80.6493336 114.331414,83.4549942 109.941912,83.4549942 L101.208162,83.4549942 Z M123.110416,85.3556031 L124.377489,85.3556031 C124.694257,85.3556031 124.92052,85.1293401 125.011025,84.9483298 L128.631233,76.6218529 L145.917723,76.6218529 L149.583182,84.9483298 C149.673688,85.1293401 149.899951,85.3556031 150.216719,85.3556031 L151.393286,85.3556031 C151.891065,85.3556031 151.891065,85.0840875 151.800559,84.812572 L137.998519,53.3167681 C137.862761,53.0452526 137.636498,53 137.410235,53 L137.274478,53 C137.048215,53 136.821952,53.1357578 136.731446,53.3167681 L122.793648,84.812572 C122.65789,85.1745927 122.793648,85.3556031 123.110416,85.3556031 L123.110416,85.3556031 Z M129.445779,74.8570018 L137.31973,56.6202073 L137.410235,56.6202073 L145.148429,74.8570018 L129.445779,74.8570018 Z M155.963798,84.4958039 C155.963798,84.9483298 156.325819,85.3556031 156.778345,85.3556031 L167.819977,85.3556031 C176.553727,85.3556031 183.703637,78.2509462 183.703637,69.4719434 C183.703637,60.7834458 176.553727,53.6787889 167.819977,53.6787889 L156.778345,53.6787889 C156.325819,53.6787889 155.963798,54.0860622 155.963798,54.5385881 L155.963798,84.4958039 Z M163.023202,78.6582195 L163.023202,60.3309199 L167.367451,60.3309199 C172.480994,60.3309199 176.191706,64.3584005 176.191706,69.4719434 C176.191706,74.6307389 172.480994,78.6582195 167.367451,78.6582195 L163.023202,78.6582195 Z M189.224453,84.4958039 C189.224453,84.9483298 189.631726,85.3556031 190.084252,85.3556031 L195.514563,85.3556031 C195.967089,85.3556031 196.374362,84.9483298 196.374362,84.4958039 L196.374362,54.5385881 C196.374362,54.0860622 195.967089,53.6787889 195.514563,53.6787889 L190.084252,53.6787889 C189.631726,53.6787889 189.224453,54.0860622 189.224453,54.5385881 L189.224453,84.4958039 Z M201.895179,69.5624486 C201.895179,78.6129669 209.135593,85.7628764 218.140859,85.7628764 C224.702485,85.7628764 229.363502,82.821458 229.363502,82.821458 C229.544512,82.6857002 229.725522,82.3236794 229.725522,82.0974165 L229.68027,69.9244693 C229.68027,69.4719434 229.318249,69.0646701 228.865723,69.0646701 L219.769952,69.0646701 C219.272174,69.0646701 218.910153,69.4266908 218.910153,69.9244693 L218.910153,74.4044759 C218.910153,74.8570018 219.272174,75.2190225 219.769952,75.2190225 L222.620866,75.2190225 L222.620866,77.8436729 C221.263288,78.386704 219.90571,78.5677143 218.593385,78.5677143 C213.660852,78.5677143 209.633372,74.4949811 209.633372,69.5624486 C209.633372,64.5846635 213.6156,60.421425 218.548132,60.421425 C220.765509,60.421425 222.756623,61.0097087 224.476222,62.5935494 C224.838243,62.865065 225.336021,62.865065 225.698042,62.5482969 L229.272997,58.7470792 C229.635017,58.3850584 229.589765,57.8420273 229.182491,57.5252592 C226.105315,54.8553563 221.942077,53.2715156 218.140859,53.2715156 C209.135593,53.2715156 201.895179,60.5119302 201.895179,69.5624486 L201.895179,69.5624486 Z M235.925128,84.4958039 C235.925128,84.9483298 236.332401,85.3556031 236.784927,85.3556031 L242.215238,85.3556031 C242.667764,85.3556031 243.075037,84.9483298 243.075037,84.4958039 L243.075037,54.5385881 C243.075037,54.0860622 242.667764,53.6787889 242.215238,53.6787889 L236.784927,53.6787889 C236.332401,53.6787889 235.925128,54.0860622 235.925128,54.5385881 L235.925128,84.4958039 Z M254.931216,84.4958039 C254.931216,84.9483298 255.338489,85.3556031 255.791015,85.3556031 L261.221326,85.3556031 C261.673852,85.3556031 262.081126,84.9483298 262.081126,84.4958039 L262.081126,60.3309199 L268.552246,60.3309199 C269.050025,60.3309199 269.412045,59.9236465 269.412045,59.4711206 L269.412045,54.5385881 C269.412045,54.0860622 269.050025,53.6787889 268.552246,53.6787889 L248.460095,53.6787889 C247.962317,53.6787889 247.600296,54.0860622 247.600296,54.5385881 L247.600296,59.4711206 C247.600296,59.9236465 247.962317,60.3309199 248.460095,60.3309199 L254.931216,60.3309199 L254.931216,84.4958039 Z M269.004772,85.3556031 L273.982557,85.3556031 C274.887609,85.3556031 275.385388,84.812572 275.61165,84.2695409 L277.240744,80.6493336 L289.549449,80.6493336 L291.178542,84.2242883 C291.585815,85.0840875 291.947836,85.3556031 292.762383,85.3556031 L297.78542,85.3556031 C298.464209,85.3556031 298.82623,84.7673194 298.554714,84.1790357 L284.390653,53.7240415 C284.254896,53.4525259 283.938127,53.226263 283.621359,53.226263 L283.168833,53.226263 C282.852065,53.226263 282.535297,53.4525259 282.399539,53.7240415 L268.235478,84.1790357 C267.963962,84.7673194 268.325983,85.3556031 269.004772,85.3556031 L269.004772,85.3556031 Z M279.955899,74.4949811 L283.349844,67.0283034 L283.395096,67.0283034 L286.834293,74.4949811 L279.955899,74.4949811 Z M302.265427,84.4958039 C302.265427,84.9483298 302.627448,85.3556031 303.125226,85.3556031 L320.140201,85.3556031 C320.637979,85.3556031 321,84.9483298 321,84.4958039 L321,79.5632714 C321,79.1107454 320.637979,78.7034721 320.140201,78.7034721 L309.370084,78.7034721 L309.370084,54.5385881 C309.370084,54.0860622 308.962811,53.6787889 308.510285,53.6787889 L303.125226,53.6787889 C302.627448,53.6787889 302.265427,54.0860622 302.265427,54.5385881 L302.265427,84.4958039 Z" id="LABADIGITAL-Copy"></path>
        </g>
    </g>
</svg>